
        <svg xmlns="http://www.w3.org/2000/svg" xmlns:xlink="http://www.w3.org/1999/xlink" version="1.1" width="3171.4285714285716" 
        height="1515.9321564732495" viewBox="0 0 3171.4285714285716 1515.9321564732495">
			
			<g transform="scale(8.571428571428571) translate(10, 10)">
				<defs id="SvgjsDefs10958"></defs><g id="SvgjsG10959" featureKey="UqkkrJ-0" transform="matrix(0.5079049078437439,0,0,0.5079049078437439,86.65857346743874,-57.9422849426956)" fill="#ffbc59"><g xmlns="http://www.w3.org/2000/svg"><path d="M175 135.96c7.2 0 13.23 4.79 15.69 11.39q.87 2.35.84 9.22-.05 9.14-.06 18.16 0 9.02.03 18.17.02 6.86-.86 9.21c-2.47 6.6-8.5 11.37-15.71 11.37-7.21-.01-13.23-4.79-15.7-11.4q-.87-2.35-.84-9.21.05-9.14.06-18.17.01-9.02-.03-18.16-.02-6.86.86-9.22c2.47-6.59 8.51-11.37 15.72-11.36M92.33 145.83c9.72.02 16.39 7.41 16.56 16.87q.15 8.78.15 12.07-.01 3.28-.21 12.07c-.22 9.45-6.92 16.81-16.64 16.79-9.72-.03-16.39-7.42-16.56-16.88q-.15-8.78-.14-12.07.01-3.28.2-12.07c.22-9.45 6.93-16.81 16.64-16.78" fill="#d6773d"></path></g><g xmlns="http://www.w3.org/2000/svg"><rect width="33.38" height="120.84" x="-16.69" y="-60.42" rx="16.22" transform="rotate(-.1 100064.989 -76333.826)" fill="#FE904D"></rect><rect width="33.02" height="57.08" x="-16.51" y="-28.54" rx="15.59" transform="rotate(-.1 100276.123 -147569.52)" fill="#FE904D"></rect></g><rect xmlns="http://www.w3.org/2000/svg" width="33.3" height="120.86" x="-16.65" y="-60.43" fill="#FFBC59" rx="16.17" transform="rotate(.1 -99918.726 124098.244)"></rect></g><g id="SvgjsG10960" featureKey="0kuQ8p-0" transform="matrix(3.7321394010428466,0,0,3.7321394010428466,-2.313926001537106,59.204310667298735)" fill="#000000"><path d="M5.1 14.78 l2.08 0 l0 1.86 c0 2.24 -1.12 3.52 -3.28 3.52 s-3.28 -1.28 -3.28 -3.52 l0 -7.28 c0 -2.24 1.12 -3.52 3.28 -3.52 s3.28 1.28 3.28 3.52 l0 1.36 l-2.08 0 l0 -1.5 c0 -1 -0.44 -1.38 -1.14 -1.38 s-1.14 0.38 -1.14 1.38 l0 7.56 c0 1 0.44 1.36 1.14 1.36 s1.14 -0.36 1.14 -1.36 l0 -2 z M10.54 9.22 l0 7.56 c0 1 0.44 1.38 1.14 1.38 s1.14 -0.38 1.14 -1.38 l0 -7.56 c0 -1 -0.44 -1.38 -1.14 -1.38 s-1.14 0.38 -1.14 1.38 z M8.34 16.64 l0 -7.28 c0 -2.24 1.18 -3.52 3.34 -3.52 s3.34 1.28 3.34 3.52 l0 7.28 c0 2.24 -1.18 3.52 -3.34 3.52 s-3.34 -1.28 -3.34 -3.52 z M21.14 20 l-2.7 -10.14 l-0.04 0 l0 10.14 l-1.98 0 l0 -14 l2.76 0 l2.22 8.38 l0.04 0 l0 -8.38 l1.96 0 l0 14 l-2.26 0 z M26.62 6 l1.66 11.42 l0.04 0 l1.66 -11.42 l2.02 0 l-2.16 14 l-3.28 0 l-2.16 -14 l2.22 0 z M33.02 20 l0 -14 l2.2 0 l0 14 l-2.2 0 z M38.46 6 l1.66 11.42 l0.04 0 l1.66 -11.42 l2.02 0 l-2.16 14 l-3.28 0 l-2.16 -14 l2.22 0 z M44.86 20 l0 -14 l2.2 0 l0 14 l-2.2 0 z M53.54 6 l2.24 14 l-2.22 0 l-0.38 -2.54 l-2.7 0 l-0.38 2.54 l-2.02 0 l2.24 -14 l3.22 0 z M51.8 8.48 l-1.04 7.08 l2.12 0 l-1.04 -7.08 l-0.04 0 z M65.58 20 l-0.78 -7.46 l-0.04 0 l-0.78 7.46 l-3.02 0 l-1.56 -14 l2.14 0 l1.16 11.04 l0.04 0 l1.04 -11.04 l2.12 0 l1.08 11.12 l0.04 0 l1.12 -11.12 l1.92 0 l-1.56 14 l-2.92 0 z M73.18 9.22 l0 7.56 c0 1 0.44 1.38 1.14 1.38 s1.14 -0.38 1.14 -1.38 l0 -7.56 c0 -1 -0.44 -1.38 -1.14 -1.38 s-1.14 0.38 -1.14 1.38 z M70.98 16.64 l0 -7.28 c0 -2.24 1.18 -3.52 3.34 -3.52 s3.34 1.28 3.34 3.52 l0 7.28 c0 2.24 -1.18 3.52 -3.34 3.52 s-3.34 -1.28 -3.34 -3.52 z M85.92 20 l-2.24 0 c-0.12 -0.36 -0.2 -0.58 -0.2 -1.72 l0 -2.2 c0 -1.3 -0.44 -1.78 -1.44 -1.78 l-0.76 0 l0 5.7 l-2.2 0 l0 -14 l3.32 0 c2.28 0 3.26 1.06 3.26 3.22 l0 1.1 c0 1.44 -0.46 2.36 -1.44 2.82 l0 0.04 c1.1 0.46 1.46 1.5 1.46 2.96 l0 2.16 c0 0.68 0.02 1.18 0.24 1.7 z M82.34 8 l-1.06 0 l0 4.3 l0.86 0 c0.82 0 1.32 -0.36 1.32 -1.48 l0 -1.38 c0 -1 -0.34 -1.44 -1.12 -1.44 z M92.14 20 l-2.14 -5.58 l-0.68 1.28 l0 4.3 l-2.2 0 l0 -14 l2.2 0 l0 6.06 l0.04 0 l2.84 -6.06 l2.2 0 l-3.06 6.24 l3.06 7.76 l-2.26 0 z"></path></g><g id="SvgjsG10961" featureKey="Nh6iBa-0" transform="matrix(0.8979574126999169,0,0,0.8979574126999169,6.443266506889122,138.75592985735344)" fill="#000000"><path d="M5.1 14.78 l2.08 0 l0 1.86 c0 2.24 -1.12 3.52 -3.28 3.52 s-3.28 -1.28 -3.28 -3.52 l0 -7.28 c0 -2.24 1.12 -3.52 3.28 -3.52 s3.28 1.28 3.28 3.52 l0 1.36 l-2.08 0 l0 -1.5 c0 -1 -0.44 -1.38 -1.14 -1.38 s-1.14 0.38 -1.14 1.38 l0 7.56 c0 1 0.44 1.36 1.14 1.36 s1.14 -0.36 1.14 -1.36 l0 -2 z M24.387938 20 l-2.24 0 c-0.12 -0.36 -0.2 -0.58 -0.2 -1.72 l0 -2.2 c0 -1.3 -0.44 -1.78 -1.44 -1.78 l-0.76 0 l0 5.7 l-2.2 0 l0 -14 l3.32 0 c2.28 0 3.26 1.06 3.26 3.22 l0 1.1 c0 1.44 -0.46 2.36 -1.44 2.82 l0 0.04 c1.1 0.46 1.46 1.5 1.46 2.96 l0 2.16 c0 0.68 0.02 1.18 0.24 1.7 z M20.807937 8 l-1.06 0 l0 4.3 l0.86 0 c0.82 0 1.32 -0.36 1.32 -1.48 l0 -1.38 c0 -1 -0.34 -1.44 -1.12 -1.44 z M36.815875 8 l0 3.9 l3.02 0 l0 2 l-3.02 0 l0 4.1 l3.8 0 l0 2 l-6 0 l0 -14 l6 0 l0 2 l-3.8 0 z M55.883813 6 l2.24 14 l-2.22 0 l-0.38 -2.54 l-2.7 0 l-0.38 2.54 l-2.02 0 l2.24 -14 l3.22 0 z M54.143812 8.48 l-1.04 7.08 l2.12 0 l-1.04 -7.08 l-0.04 0 z M67.53175 8 l0 -2 l6.8 0 l0 2 l-2.3 0 l0 12 l-2.2 0 l0 -12 l-2.3 0 z M86.519687 8 l0 3.9 l3.02 0 l0 2 l-3.02 0 l0 4.1 l3.8 0 l0 2 l-6 0 l0 -14 l6 0 l0 2 l-3.8 0 z M100.707625 17.88 l2.12 0 l0 2.12 l-2.12 0 l0 -2.12 z M129.8835 14.78 l2.08 0 l0 1.86 c0 2.24 -1.12 3.52 -3.28 3.52 s-3.28 -1.28 -3.28 -3.52 l0 -7.28 c0 -2.24 1.12 -3.52 3.28 -3.52 s3.28 1.28 3.28 3.52 l0 1.36 l-2.08 0 l0 -1.5 c0 -1 -0.44 -1.38 -1.14 -1.38 s-1.14 0.38 -1.14 1.38 l0 7.56 c0 1 0.44 1.36 1.14 1.36 s1.14 -0.36 1.14 -1.36 l0 -2 z M144.351438 9.22 l0 7.56 c0 1 0.44 1.38 1.14 1.38 s1.14 -0.38 1.14 -1.38 l0 -7.56 c0 -1 -0.44 -1.38 -1.14 -1.38 s-1.14 0.38 -1.14 1.38 z M142.151438 16.64 l0 -7.28 c0 -2.24 1.18 -3.52 3.34 -3.52 s3.34 1.28 3.34 3.52 l0 7.28 c0 2.24 -1.18 3.52 -3.34 3.52 s-3.34 -1.28 -3.34 -3.52 z M163.979375 20 l-2.7 -10.14 l-0.04 0 l0 10.14 l-1.98 0 l0 -14 l2.76 0 l2.22 8.38 l0.04 0 l0 -8.38 l1.96 0 l0 14 l-2.26 0 z M181.547313 20 l-2.7 -10.14 l-0.04 0 l0 10.14 l-1.98 0 l0 -14 l2.76 0 l2.22 8.38 l0.04 0 l0 -8.38 l1.96 0 l0 14 l-2.26 0 z M196.61525 8 l0 3.9 l3.02 0 l0 2 l-3.02 0 l0 4.1 l3.8 0 l0 2 l-6 0 l0 -14 l6 0 l0 2 l-3.8 0 z M215.103188 14.78 l2.08 0 l0 1.86 c0 2.24 -1.12 3.52 -3.28 3.52 s-3.28 -1.28 -3.28 -3.52 l0 -7.28 c0 -2.24 1.12 -3.52 3.28 -3.52 s3.28 1.28 3.28 3.52 l0 1.36 l-2.08 0 l0 -1.5 c0 -1 -0.44 -1.38 -1.14 -1.38 s-1.14 0.38 -1.14 1.38 l0 7.56 c0 1 0.44 1.36 1.14 1.36 s1.14 -0.36 1.14 -1.36 l0 -2 z M226.911125 8 l0 -2 l6.8 0 l0 2 l-2.3 0 l0 12 l-2.2 0 l0 -12 l-2.3 0 z M242.499063 17.88 l2.12 0 l0 2.12 l-2.12 0 l0 -2.12 z M271.674938 14.78 l2.08 0 l0 1.86 c0 2.24 -1.12 3.52 -3.28 3.52 s-3.28 -1.28 -3.28 -3.52 l0 -7.28 c0 -2.24 1.12 -3.52 3.28 -3.52 s3.28 1.28 3.28 3.52 l0 1.36 l-2.08 0 l0 -1.5 c0 -1 -0.44 -1.38 -1.14 -1.38 s-1.14 0.38 -1.14 1.38 l0 7.56 c0 1 0.44 1.36 1.14 1.36 s1.14 -0.36 1.14 -1.36 l0 -2 z M286.142875 9.22 l0 7.56 c0 1 0.44 1.38 1.14 1.38 s1.14 -0.38 1.14 -1.38 l0 -7.56 c0 -1 -0.44 -1.38 -1.14 -1.38 s-1.14 0.38 -1.14 1.38 z M283.942875 16.64 l0 -7.28 c0 -2.24 1.18 -3.52 3.34 -3.52 s3.34 1.28 3.34 3.52 l0 7.28 c0 2.24 -1.18 3.52 -3.34 3.52 s-3.34 -1.28 -3.34 -3.52 z M306.750813 20 l-0.78 -7.46 l-0.04 0 l-0.78 7.46 l-3.02 0 l-1.56 -14 l2.14 0 l1.16 11.04 l0.04 0 l1.04 -11.04 l2.12 0 l1.08 11.12 l0.04 0 l1.12 -11.12 l1.92 0 l-1.56 14 l-2.92 0 z M323.37875 9.22 l0 7.56 c0 1 0.44 1.38 1.14 1.38 s1.14 -0.38 1.14 -1.38 l0 -7.56 c0 -1 -0.44 -1.38 -1.14 -1.38 s-1.14 0.38 -1.14 1.38 z M321.17875 16.64 l0 -7.28 c0 -2.24 1.18 -3.52 3.34 -3.52 s3.34 1.28 3.34 3.52 l0 7.28 c0 2.24 -1.18 3.52 -3.34 3.52 s-3.34 -1.28 -3.34 -3.52 z M345.146688 20 l-2.24 0 c-0.12 -0.36 -0.2 -0.58 -0.2 -1.72 l0 -2.2 c0 -1.3 -0.44 -1.78 -1.44 -1.78 l-0.76 0 l0 5.7 l-2.2 0 l0 -14 l3.32 0 c2.28 0 3.26 1.06 3.26 3.22 l0 1.1 c0 1.44 -0.46 2.36 -1.44 2.82 l0 0.04 c1.1 0.46 1.46 1.5 1.46 2.96 l0 2.16 c0 0.68 0.02 1.18 0.24 1.7 z M341.566688 8 l-1.06 0 l0 4.3 l0.86 0 c0.82 0 1.32 -0.36 1.32 -1.48 l0 -1.38 c0 -1 -0.34 -1.44 -1.12 -1.44 z M360.394625 20 l-2.14 -5.58 l-0.68 1.28 l0 4.3 l-2.2 0 l0 -14 l2.2 0 l0 6.06 l0.04 0 l2.84 -6.06 l2.2 0 l-3.06 6.24 l3.06 7.76 l-2.26 0 z M372.682563 17.88 l2.12 0 l0 2.12 l-2.12 0 l0 -2.12 z"></path></g>
			</g>
		</svg>
	